<?xml version="1.0" standalone="no"?>
<!DOCTYPE svg PUBLIC "-//W3C//DTD SVG 20010904//EN"
 "http://www.w3.org/TR/2001/REC-SVG-20010904/DTD/svg10.dtd">
<svg version="1.0" xmlns="http://www.w3.org/2000/svg"
 width="1280.000000pt" height="870.000000pt" viewBox="0 0 1280.000000 870.000000"
 preserveAspectRatio="xMidYMid meet">
<g transform="translate(0.000000,870.000000) scale(0.100000,-0.100000)"
fill="#000000" stroke="none">
<path d="M2820 8696 c-3 -3 -48 -10 -100 -16 -747 -88 -1364 -588 -1599 -1295
-118 -356 -129 -725 -31 -1093 200 -749 843 -1301 1624 -1393 124 -15 420 -6
534 15 312 58 579 175 827 361 63 48 75 62 80 93 81 490 279 900 599 1239 58
62 65 73 71 123 9 73 -11 310 -36 435 -72 359 -258 704 -519 965 -350 350
-807 545 -1330 567 -63 3 -117 2 -120 -1z"/>
<path d="M9770 8696 c-3 -3 -48 -10 -100 -16 -826 -97 -1493 -705 -1656 -1507
-29 -143 -48 -364 -38 -443 6 -51 12 -61 80 -133 297 -316 504 -733 579 -1170
l17 -97 74 -55 c247 -186 514 -303 826 -361 114 -21 410 -30 534 -15 226 27
422 84 619 180 394 193 693 495 885 893 252 523 248 1128 -9 1653 -186 379
-480 674 -859 865 -187 93 -384 154 -609 187 -113 16 -334 29 -343 19z"/>
<path d="M6170 6939 c-304 -39 -628 -165 -869 -337 -107 -76 -292 -249 -374
-350 -472 -579 -561 -1389 -224 -2057 230 -457 663 -821 1149 -965 300 -89
628 -103 940 -40 480 98 922 400 1198 820 453 690 406 1601 -117 2242 -82 101
-267 274 -374 350 -52 38 -159 101 -239 142 -207 105 -411 167 -640 196 -97
12 -355 11 -450 -1z"/>
<path d="M1330 5029 c-384 -276 -682 -659 -891 -1144 -202 -472 -364 -1189
-409 -1810 -6 -82 -15 -191 -20 -242 -6 -50 -10 -119 -10 -152 l0 -61 1789 0
1788 0 18 63 c9 34 40 130 67 212 234 701 588 1198 1112 1557 5 3 -23 43 -62
88 -311 351 -502 773 -562 1235 -6 49 -13 91 -14 93 -2 1 -31 -14 -66 -34
-204 -119 -477 -224 -702 -268 -672 -133 -1340 35 -1879 471 -36 29 -68 53
-70 53 -2 0 -42 -28 -89 -61z"/>
<path d="M11345 5064 c-570 -486 -1342 -659 -2060 -463 -195 54 -396 139 -558
236 -32 19 -60 34 -62 32 -2 -2 -8 -42 -15 -89 -62 -472 -249 -886 -560 -1239
l-71 -80 48 -32 c98 -66 241 -186 338 -284 336 -338 563 -739 755 -1332 l62
-193 1791 0 1790 0 -6 103 c-41 686 -122 1190 -276 1700 -148 491 -332 862
-577 1167 -84 105 -266 288 -359 361 -82 65 -190 139 -202 139 -4 -1 -21 -12
-38 -26z"/>
<path d="M7742 3225 c-352 -257 -741 -399 -1185 -436 -499 -41 -1052 115
-1471 416 -43 31 -85 54 -92 51 -70 -27 -295 -209 -429 -347 -383 -396 -636
-932 -800 -1694 -81 -380 -145 -881 -145 -1141 l0 -74 2782 0 2781 0 -6 153
c-16 373 -82 827 -178 1212 -187 751 -441 1246 -835 1625 -104 100 -274 234
-340 268 -18 10 -30 5 -82 -33z"/>
</g>
</svg>
